<svg xmlns="http://www.w3.org/2000/svg" xmlns:xlink="http://www.w3.org/1999/xlink" fill="none" version="1.1" width="128" height="128" viewBox="0 0 128 128"><defs><clipPath id="master_svg0_3_1306"><rect x="0" y="0" width="128" height="128" rx="0"/></clipPath></defs><g clip-path="url(#master_svg0_3_1306)"><g><path d="M77.13001875,16.8576C82.84251875,16.8576,87.47391875,21.4875,87.47561875,27.2L87.47561875,36.9888C87.47561875,39.4208,88.57641875,41.6512,90.38761875,42.9312C102.56261875,51.4888,109.80471875,65.4416,109.79561875,80.3232C109.79561875,107.571,86.17001875,128.861,58.79081875,125.827C37.62601875,123.488,20.58925875,106.269,18.44845775,85.072C16.72943875,68.661,23.99268875,52.5982,37.45001875,43.0496C39.37641875,41.6736,40.52201875,39.4208,40.52201875,37.0016L40.52201875,27.2C40.52201875,21.4838,45.157818750000004,16.8509,50.87401875,16.8544L77.13001875,16.8544L77.13001875,16.8576ZM77.13001875,26.4576L50.87401875,26.4576C50.46101875,26.4558,50.12521875,26.7902,50.12521875,27.2032L50.12521875,37.0016C50.138318749999996,42.5002,47.491718750000004,47.6657,43.02121875,50.8672C32.37181875,58.4152,26.62700875,71.1246,27.99725875,84.1056C29.68361875,100.8,43.18441875,114.442,59.84681875,116.288C81.52681874999999,118.688,100.19561875,101.869,100.19561875,80.3264C100.19561875,68.4288,94.40681875,57.5232,84.84841875,50.7744C80.43241875,47.6512,77.87241875000001,42.4736,77.87241875000001,36.992L77.87241875000001,27.2C77.87071875000001,26.7907,77.53931875,26.4594,77.13001875,26.4576ZM53.81161875,9.6L74.18921875000001,9.6C76.84021874999999,9.6,78.98921874999999,7.45097,78.98921874999999,4.8C78.98921874999999,2.14903,76.84021874999999,0,74.18921875000001,0L53.81161875,0C51.16071875,0,49.01161875,2.14903,49.01161875,4.8C49.01161875,7.45097,51.16071875,9.6,53.81161875,9.6Z" fill="#FFFFFF" fill-opacity="1"/></g><g><path d="M23.81350375,124.96651015625L107.57674375,41.20648015625C108.45774375,40.26085015625,108.43174375,38.78729015625,107.51784375,37.87336015625C106.60394375,36.95942315625,105.13034375,36.93339515625,104.18474375,37.81448315625L20.42149975,121.56811015625C19.54033075,122.51371015625,19.56632275,123.98731015625,20.48028975,124.90131015625C21.39425375,125.81531015625,22.86787375,125.84121015625,23.81350375,124.96011015625L23.81350375,124.96651015625Z" fill="#FFFFFF" fill-opacity="1"/></g><g><path d="M107.57664375,121.5710921875L23.81348375,37.8111301875C22.867853750000002,36.9299771875,21.39425375,36.9559781875,20.48029175,37.8699381875C19.56632975,38.7839021875,19.54033075,40.2575021875,20.42148175,41.2031321875L104.18144375,124.9662921875C105.12274375,125.8763921875,106.61974375,125.8641921875,107.54594375,124.9387921875C108.47224375,124.0133921875,108.48584375,122.5164921875,107.57664375,121.5742921875L107.57664375,121.5710921875Z" fill="#FFFFFF" fill-opacity="1"/></g></g></svg>