<svg xmlns="http://www.w3.org/2000/svg" xmlns:xlink="http://www.w3.org/1999/xlink" fill="none" version="1.1" width="128" height="128" viewBox="0 0 128 128"><defs><clipPath id="master_svg0_3_1217"><rect x="0" y="0" width="128" height="128" rx="0"/></clipPath></defs><g clip-path="url(#master_svg0_3_1217)"><g><path d="M50.5483375,63.7922828125L74.8803375,37.8522828125C76.4512375,36.178382812500004,76.2940375,33.5286828125,74.5363375,32.052282812499996L47.0083375,8.9402588125C45.8173375,7.9419603125,44.1561375,7.7230558125,42.7471375,8.3787168125C41.3381375,9.0343828125,40.4357375,10.4461528125,40.4323375,12.0002628125L40.4323375,53.7562828125L18.7763675,32.272282812499995C17.207877500000002,30.7169828125,14.6756075,30.7277828125,13.1203675,32.296282812499996C11.5651355,33.864782812499996,11.5758815,36.3969828125,13.1443675,37.9522828125L39.3923375,63.9922828125L13.0443675,92.0802828125C11.6269205,93.7039828125,11.7491875,96.1584828125,13.3209875,97.6332828125C14.8927975,99.1081828125,17.3500375,99.0740828125,18.8803675,97.5562828125L40.4323375,74.5762828125L40.4323375,119.6878828125C40.4367375,121.8958828125,42.2250375,123.6838828125,44.4323375,123.6878828125C45.5308375,123.6898828125,46.5813375,123.2378828125,47.3363375,122.4398828125L74.8643375,93.4162828125C76.3606375,91.8391828125,76.3233375,89.3556828125,74.7803375,87.8242828125L50.5483375,63.7922828125ZM48.4323375,20.5842828125L66.1523375,35.4602828125L48.4323375,54.3562828125L48.4323375,20.5842828125ZM48.4323375,109.6598828125L48.4323375,72.9602828125L66.3683375,90.7522828125L48.4323375,109.6598828125ZM86.8563375,42.7242828125C85.6252375,40.8901828125,83.1408375,40.4006828125,81.3059375,41.6305828125C79.4710375,42.8604828125,78.9797375,45.3444828125,80.2083375,47.1802828125C83.0430375,51.4111828125,84.5513375,56.3914828125,84.5403375,61.4842828125C84.5526375,66.57538281250001,83.0457375,71.5543828125,80.2123375,75.7842828125C78.9785375,77.6178828125,79.4664375,80.1047828125,81.3016375,81.3363828125C83.1368375,82.5679828125,85.6230375,82.0769828125,86.8523375,80.2402828125C90.5722375,74.6933828125,92.5526375,68.16298281249999,92.5403375,61.4842828125C92.5524375,54.8049828125,90.5735375,48.2736828125,86.8563375,42.7242828125ZM110.8163375,40.8042828125C109.4240375,37.4327828125,107.7010375,34.207682812499996,105.6723375,31.1762828125C104.4430375,29.3404828125,101.9581375,28.8488828125,100.1223375,30.0782828125C98.2865375,31.3076828125,97.7949375,33.7924828125,99.0243375,35.628282812500004C104.2662375,43.4589828125,107.0581375,52.6729828125,107.0443375,62.0962828125C107.0516375,71.5185828125,104.2603375,80.7306828125,99.0243375,88.5642828125C97.8855375,90.3968828125,98.4036375,92.8022828125,100.1958375,94.0035828125C101.9881375,95.2048828125,104.4100375,94.7700828125,105.6723375,93.0202828125C111.7982375,83.8732828125,115.0609375,73.1090828125,115.0439375,62.1002828125C115.0439375,54.7402828125,113.6199375,47.5762828125,110.8163375,40.8042828125Z" fill="#FFFFFF" fill-opacity="1"/></g></g></svg>