<svg xmlns="http://www.w3.org/2000/svg" xmlns:xlink="http://www.w3.org/1999/xlink" fill="none" version="1.1" width="667" height="87" viewBox="0 0 667 87"><g><g transform="matrix(1,0,0,-1,0,174)"><path d="M0 109C0 96.84973550372254 9.849735503722547 87 22 87L645 87C657.1502644962775 87 667 96.84973550372254 667 109L667 174C667 174 667 174 667 174L0 174C0 174 0 174 0 174Z" fill="#2E62B5" fill-opacity="1"/></g><g><ellipse cx="592.5" cy="44.5" rx="18.5" ry="18.5" fill="#65CE67" fill-opacity="1"/><ellipse cx="592.5" cy="44.5" rx="18.5" ry="18.5" fill-opacity="0" stroke-opacity="1" stroke="#65CF63" fill="none" stroke-width="2"/></g><g><path d="M588.99982,49.2359L601.9989,37L604,38.88204L588.99982,53L580,44.52949L581.99965,42.64745L588.99982,49.2359Z" fill="#1C1C1D" fill-opacity="1"/></g></g></svg>