<svg xmlns="http://www.w3.org/2000/svg" xmlns:xlink="http://www.w3.org/1999/xlink" fill="none" version="1.1" width="128" height="128" viewBox="0 0 128 128"><defs><clipPath id="master_svg0_3_1225"><rect x="0" y="0" width="128" height="128" rx="0"/></clipPath></defs><g clip-path="url(#master_svg0_3_1225)"><g><path d="M108.8,99.2L19.2,99.2C8.6128,99.2,0,90.5872,0,80L0,19.2C0,8.6128,8.6128,0,19.2,0L108.8,0C119.387,0,128,8.6128,128,19.2L128,80C128,90.5872,119.387,99.2,108.8,99.2ZM19.2,6.4C12.1424,6.4,6.4,12.1424,6.4,19.2L6.4,80C6.4,87.0576,12.1424,92.8,19.2,92.8L108.8,92.8C115.858,92.8,121.6,87.0576,121.6,80L121.6,19.2C121.6,12.1424,115.858,6.4,108.8,6.4L19.2,6.4ZM99.2,128L28.8,128C27.0327,128,25.6,126.567,25.6,124.8C25.6,123.033,27.0327,121.6,28.8,121.6L99.2,121.6C100.967,121.6,102.4,123.033,102.4,124.8C102.4,126.567,100.967,128,99.2,128ZM79.2,113.6L48.8,113.6C47.0327,113.6,45.6,112.167,45.6,110.4C45.6,108.633,47.0327,107.2,48.8,107.2L79.2,107.2C80.9673,107.2,82.4,108.633,82.4,110.4C82.4,112.167,80.9673,113.6,79.2,113.6Z" fill="#FFFFFF" fill-opacity="1"/></g><g><path d="M102.400390625,67.1998046875L25.600390625,67.1998046875C23.833080625,67.1997946875,22.400390625,65.7671146875,22.400390625,63.9998046875C22.400390625,62.2324946875,23.833080625,60.7998008728,25.600390625,60.7998046875L102.400390625,60.7998046875C104.167690625,60.7998008728,105.600390625,62.2324946875,105.600390625,63.9998046875C105.600390625,65.7671146875,104.167690625,67.1997946875,102.400390625,67.1998046875Z" fill="#FFFFFF" fill-opacity="1"/></g><g><path d="M41.600390625,73.6C39.833090625,73.6,38.400390625,72.1673,38.400390625,70.4L38.400390625,57.6C38.400390625,55.8327,39.833090625,54.4,41.600390625,54.4C43.367690625,54.4,44.800390625,55.8327,44.800390625,57.6L44.800390625,70.4C44.800390625,72.1673,43.367690625,73.6,41.600390625,73.6ZM102.400390625,38.4L25.600390625,38.4C23.833080625,38.4,22.400390625,36.96731,22.400390625,35.2C22.400390625,33.43269,23.833080625,32,25.600390625,32L102.400390625,32C104.167690625,32,105.600390625,33.43269,105.600390625,35.2C105.600390625,36.96731,104.167690625,38.4,102.400390625,38.4Z" fill="#FFFFFF" fill-opacity="1"/></g><g><path d="M86.39921875,44.799609375C84.63190875,44.799609375,83.19921875,43.366909375,83.19921875,41.599609375L83.19921875,28.799609375C83.19921875,27.032299375,84.63190875,25.599609375,86.39921875,25.599609375C88.16652875,25.599609375,89.59921875,27.032299375,89.59921875,28.799609375L89.59921875,41.599609375C89.59922875,43.366909375,88.16653875,44.799609375,86.39921875,44.799609375Z" fill="#FFFFFF" fill-opacity="1"/></g></g></svg>