<svg xmlns="http://www.w3.org/2000/svg" xmlns:xlink="http://www.w3.org/1999/xlink" fill="none" version="1.1" width="128" height="128" viewBox="0 0 128 128"><defs><clipPath id="master_svg0_3_387"><rect x="0" y="0" width="128" height="128" rx="0"/></clipPath></defs><g clip-path="url(#master_svg0_3_387)"><g><path d="M28.6559259765625,24.053387011718748C38.398325976562504,15.41009701171875,50.9761259765625,10.64622751171875,63.9999259765625,10.66675186161875C93.4559259765625,10.66675186161875,117.3336259765625,34.54408701171875,117.3336259765625,64.00008701171875C117.3506259765625,74.90088701171875,114.0116259765625,85.54278701171874,107.7706259765625,94.48008701171875L93.3333259765625,64.00008701171875L106.6666259765625,64.00008701171875C106.6669259765625,46.64728701171875,96.1577259765625,31.02298701171875,80.0854259765625,24.48088701171875C64.01312597656249,17.938887011718748,45.5797259765625,21.78248701171875,33.4613259765625,34.202787011718755L28.6559259765625,24.053387011718748L28.6559259765625,24.053387011718748ZM99.3439259765625,103.94678701171875C89.6015259765625,112.58968701171875,77.0238259765625,117.35368701171875,63.9999259765625,117.33368701171875C34.543925976562505,117.33368701171875,10.6666259765625,93.45608701171875,10.6666259765625,64.00008701171875C10.6666259765625,52.66678701171875,14.2026259765625,42.16008701171875,20.2292959765625,33.52008701171875L34.6666259765625,64.00008701171875L21.3333259765625,64.00008701171875C21.3330259765625,81.35288701171875,31.8421259765625,96.97718701171875,47.9145259765625,103.51928701171875C63.9868259765625,110.06128701171875,82.4202259765625,106.21768701171875,94.5386259765625,93.79738701171875L99.3439259765625,103.94678701171875L99.3439259765625,103.94678701171875ZM71.54132597656249,79.08278701171875L56.4586259765625,64.00008701171875L41.3706259765625,79.08278701171875L33.8293259765625,71.54138701171874L56.4586259765625,48.91738701171875L71.54132597656249,64.00008701171875L86.6293259765625,48.91738701171875L94.1706259765625,56.45878701171875L71.54132597656249,79.08278701171875Z" fill="#FFFFFF" fill-opacity="1"/></g></g></svg>