<svg xmlns="http://www.w3.org/2000/svg" xmlns:xlink="http://www.w3.org/1999/xlink" fill="none" version="1.1" width="124" height="124.00001525878906" viewBox="0 0 124 124.00001525878906"><g><path d="M2.00740271,111.606C1.889144,110.441,3.2101699999999997,109.117,4.37832,109.235L9.841239999999999,109.235L9.841239999999999,4.37832C9.72298,3.21305,11.044,1.889144,12.2122,2.00740161C13.3774,1.889144,14.7013,3.2101699999999997,14.5831,4.37832L14.5831,109.235L119.622,109.235C120.787,109.117,122.111,110.438,121.993,111.606C122.111,112.771,120.79,114.095,119.622,113.977L14.5802,113.977L14.5802,119.622C14.6984,120.787,13.3774,122.111,12.2093,121.993C11.04401,122.111,9.7201,120.79,9.83836,119.622L9.83836,113.977L4.37832,113.977C3.21305,114.095,1.889144,112.774,2.00740271,111.606ZM56.2962,91.2889C46.2559,95.2808,35.8521,97.0316,26.256,97.0201C25.1888,97.1268,23.9802,95.9183,24.0927,94.8511C23.9831,93.7867,25.1916,92.5782,26.2588,92.6849C35.3474,92.6965,45.1973,91.038,54.7041,87.2595C64.2108,83.481,73.3715,77.5826,80.9025,70.0516C88.4334,62.5206,94.3319,53.36,98.1104,43.8532C101.8888,34.3465,103.547,24.4965,103.536,15.408C103.527,14.8542,103.772,14.2629,104.17,13.8764C104.557,13.4784,105.148,13.2332,105.702,13.2419C106.256,13.2332,106.847,13.4784,107.234,13.8764C107.632,14.2629,107.877,14.8542,107.868,15.408C107.88,25.0041,106.129,35.4079,102.137,45.4483C98.145,55.4886,91.9148,65.1627,83.9627,73.1147C76.0106,81.0668,66.3366,87.297,56.2962,91.2889Z" fill-rule="evenodd" fill="#FFFFFF" fill-opacity="1"/><path d="M7.84124,107.235L7.84124,4.46294Q7.71422,2.714289,9.129529999999999,1.297877Q10.51151,-0.08518999999999988,12.212,0.0021599999999999397Q13.9105,-0.08537000000000017,15.2926,1.2956910000000001Q16.71,2.711976,16.5831,4.4627300000000005L16.5831,107.235L119.537,107.235Q121.286,107.108,122.702,108.524Q124.085,109.905,123.998,111.606Q124.085,113.304,122.704,114.687Q121.288,116.104,119.537,115.977L16.580199999999998,115.977L16.580199999999998,119.537Q16.7072,121.286,15.2919,122.702Q13.9099,124.085,12.2094,123.998Q10.51096,124.085,9.12883,122.704Q7.71144,121.288,7.83836,119.537L7.83836,115.977L4.462870000000001,115.977Q2.714248,116.104,1.297876,114.689Q-0.08518999999999988,113.307,0.0021599999999999397,111.606Q-0.08537999999999979,109.908,1.2956910000000001,108.526Q2.711983,107.108,4.46274,107.235L7.84124,107.235ZM4.27757,111.235L11.84124,111.235L11.84124,4.27783Q11.87993,4.20439,11.95906,4.1251999999999995Q12.0381,4.04608,12.1114,4.00742L12.2124,4.01765L12.3128,4.00746Q12.3862,4.04616,12.4653,4.1252200000000006Q12.5444,4.2043,12.5831,4.27757L12.5831,111.235L119.722,111.235Q119.796,111.274,119.875,111.353Q119.954,111.432,119.993,111.505L119.982,111.606L119.993,111.707Q119.954,111.78,119.875,111.859Q119.796,111.938,119.722,111.977L12.5802,111.977L12.5802,119.722Q12.5415,119.796,12.4624,119.875Q12.3833,119.954,12.3101,119.993L12.209,119.982L12.1087,119.993Q12.0353,119.954,11.95615,119.875Q11.87702,119.796,11.83836,119.722L11.83836,111.977L4.27783,111.977Q4.20439,111.938,4.1251999999999995,111.859Q4.04608,111.78,4.00742,111.707L4.01765,111.606L4.00746,111.506Q4.04616,111.432,4.1252200000000006,111.353Q4.2043,111.274,4.27757,111.235ZM22.0874,94.8486Q22.0071,93.2278,23.3203,91.9146Q24.668,90.5669,26.3422,90.685Q40.6623,90.6883,53.9654,85.4009Q60.9943,82.6072,67.4501,78.3885Q74.05,74.0756,79.4882,68.6374Q84.9265,63.1991,89.2394,56.5993Q93.4581,50.1435,96.2518,43.1145Q101.554,29.7739,101.536,15.4393Q101.5086,13.6882,102.756,12.4622Q103.971,11.22588,105.702,11.24171Q107.433,11.22587,108.648,12.4619Q109.895,13.6877,109.868,15.4056Q109.877,23.0208,108.47,30.6254Q106.98,38.6792,103.995,46.1872Q100.8913,53.9946,96.209,61.1588Q91.4209,68.485,85.377,74.529Q79.333,80.5729,72.0067,85.3611Q64.8426,90.0433,57.0352,93.1474Q49.5271,96.1325,41.4734,97.6224Q33.9106,99.0215,26.3376,99.0201Q24.663,99.1376,23.3165,97.7888Q22.0028,96.4728,22.0874,94.8486ZM26.2134,95.02L26.2584,95.0201Q41.4523,95.0384,55.5573,89.4304Q62.991,86.4749,69.8184,82.0127Q76.7977,77.4514,82.5485,71.7005Q88.2994,65.9497,92.8607,58.9704Q97.3228,52.143,100.2784,44.7094Q105.886,30.6045,105.868,15.4104Q105.869,15.3391,105.84,15.3113L105.819,15.2908L105.799,15.2697Q105.771,15.241,105.733,15.2416L105.702,15.2421L105.671,15.2416Q105.633,15.241,105.605,15.2697L105.585,15.2908L105.564,15.3113Q105.535,15.3391,105.536,15.3767Q105.555,30.5372,99.9689,44.5919Q97.0266,51.9948,92.5878,58.7874Q88.0482,65.73429999999999,82.3167,71.4658Q76.5853,77.1972,69.6383,81.737Q62.8457,86.1758,55.4428,89.1181Q41.388,94.7042,26.2563,94.6849L26.216,94.6849Q26.1846,94.7071,26.1487,94.7431Q26.1184,94.7733,26.098,94.8001L26.1035,94.8535L26.0979,94.9071Q26.1178,94.9332,26.1474,94.9628Q26.1826,94.9981,26.2134,95.02Z" fill-rule="evenodd" fill="#FFFFFF" fill-opacity="1"/></g></svg>