<svg xmlns="http://www.w3.org/2000/svg" xmlns:xlink="http://www.w3.org/1999/xlink" fill="none" version="1.1" width="128" height="128" viewBox="0 0 128 128"><defs><clipPath id="master_svg0_3_1299"><rect x="0" y="0" width="128" height="128" rx="0"/></clipPath></defs><g clip-path="url(#master_svg0_3_1299)"><g><path d="M125.599609375,15.466552734375C127.999609375,17.066552734375,128.532609375,20.533252734375,126.932609375,22.933252734375C125.332609375,25.333252734375,121.866609375,25.866552734375,119.466609375,24.266552734375C118.666609375,23.733252734375,112.799609375,20.266552734375,104.532609375,26.133252734375L113.599609375,35.199852734375C115.732609375,37.333252734375,115.732609375,40.533252734375,113.599609375,42.666552734375L101.866309375,54.399852734375C107.199609375,71.999852734375,102.399609375,91.466552734375,89.066309375,104.799852734375C79.199609375,114.933552734375,66.399609375,119.999552734375,53.332909375,119.999552734375C40.266309375,119.999552734375,27.466309375,114.933552734375,17.599609375,105.066552734375C-2.400390625,85.333252734375,-2.400390625,53.333252734375,17.599609375,33.599852734375C30.932909375,20.266552734375,50.399609375,15.466552734375,67.999609375,20.799852734375L79.732909375,9.066552734375C81.866309375,6.933219734375,85.066309375,6.933219734375,87.199609375,9.066552734375L97.066309375,18.666552734375C109.332609375,9.066552734375,120.799609375,12.266552734375,125.599609375,15.466552734375ZM95.732909375,45.866552734375L102.399609375,39.199852734375L83.466309375,20.266552734375L76.799609375,26.933252734375L95.732909375,45.866552734375ZM81.599609375,97.599852734375C92.532909375,86.666552734375,95.999609375,70.666552734375,91.199609375,56.266552734375L66.666309375,31.733252734375C51.999609375,26.666552734375,35.999609375,30.133252734375,25.066309375,41.066552734375C9.599609375,56.533252734375,9.599609375,82.133252734375,25.066309375,97.599852734375C40.532909375,113.066552734375,65.866309375,113.333552734375,81.599609375,97.599852734375Z" fill="#FFFFFF" fill-opacity="1"/></g><g><path d="M53.333984375,37.333251953125C35.733984375,37.333251953125,21.333984375,51.733251953125,21.333984375,69.333251953125C21.333984375,72.266551953125,23.733984375,74.66655195312501,26.667314375,74.66655195312501C29.600644375,74.66655195312501,32.000684375,72.266551953125,32.000684375,69.333251953125C32.000684375,57.599951953125,41.600684375,47.999951953125,53.333984375,47.999951953125C56.267284375,47.999951953125,58.667284375,45.599911953125,58.667284375,42.666581953125004C58.667284375,39.733251953125,56.267284375,37.333248138425,53.333984375,37.333251953125Z" fill="#FFFFFF" fill-opacity="1"/></g></g></svg>