<svg xmlns="http://www.w3.org/2000/svg" xmlns:xlink="http://www.w3.org/1999/xlink" fill="none" version="1.1" width="106.66667175292969" height="106.66667175292969" viewBox="0 0 106.66667175292969 106.66667175292969"><g><path d="M55.008,0L62.9547,0L62.9547,23.84L55.008,23.84L55.008,0ZM55.008,71.52L62.9547,71.52L62.9547,95.3653L55.008,95.3653L55.008,71.5253L55.008,71.52ZM11.296,51.6587L11.296,43.712L35.136,43.712L35.136,51.6587L11.296,51.6587ZM82.8267,51.6587L82.8267,43.712L106.667,43.712L106.667,51.6587L82.8267,51.6587ZM22.4747,16.7627L28.064,11.1787L44.9493,28.064L39.3653,33.6533L22.4747,16.7627ZM73.0133,67.3067L78.6027,61.7173L95.488,78.6027L89.904,84.192L73.0133,67.3067ZM5.58933,106.667L0,101.077L39.36,61.7173L44.9493,67.3067L5.58933,106.667ZM78.6027,33.6533L73.0187,28.064L89.904,11.1787L95.4933,16.7627L78.6027,33.6533Z" fill="#FFFFFF" fill-opacity="1"/></g></svg>