<svg xmlns="http://www.w3.org/2000/svg" xmlns:xlink="http://www.w3.org/1999/xlink" fill="none" version="1.1" width="128" height="128" viewBox="0 0 128 128"><defs><clipPath id="master_svg0_3_1260"><rect x="0" y="0" width="128" height="128" rx="0"/></clipPath></defs><g clip-path="url(#master_svg0_3_1260)"><g><path d="M36,83.88009765625L36,91.88009765625C27.92,91.20809765625,21.272,88.08809765625,16.064,82.50409765625C10.856,76.92009765625,8.168,70.08009765624999,8,62.00009765625C8.0799999,54.50409765625,10.416,48.04009765625,15,42.62409765625C19.584,37.208097656250004,25.544,33.79209765625,32.872,32.376097656249996C34.712,25.53609765625,38.232,19.912097656249998,43.44,15.496147656249999C48.648,11.08014765625,54.84,8.61614465625,62,8.12014575625C68.78479999999999,7.62614165625,75.5455,9.35915765625,81.256,13.056147656250001C86.9894,16.74001765625,91.4087,22.14509765625,93.88,28.49609765625C101.8,30.16009765625,108.152,33.976097656250005,112.944,39.93609765625C117.736,45.88809765625,120.048,52.91209765625,119.88,60.99209765625C119.544,68.99219765625,116.816,75.82409765625,111.688,81.49609765625C106.568,87.16019765625,100.008,90.57619765625,92.008,91.74419765625L92.008,83.62409765625C97.84,82.53619765625,102.592,79.84809765625,106.256,75.56009765625C109.92,71.26409765625,111.84,66.16009765625,112.008,60.24809765625C111.928,54.24809765625,110.088,49.08009765625,106.504,44.74409765625C102.928,40.41609765625,98.216,37.62409765625,92.384,36.36809765625L88.008,35.61609765625L86.384,31.36809765625C84.5234,26.62049765625,81.2221,22.574997656249998,76.944,19.80009765625C72.6707,17.01568765625,67.5968,15.72190765625,62.512,16.12013765625C57.3993,16.36614765625,52.5065,18.27329765625,48.576,21.552097656249998C44.6138,24.84969765625,41.829,29.34419765625,40.64,34.360097656250005L39.384,39.360097656250005L34.263999999999996,40.24009765625C28.848,41.32009765625,24.472,43.84009765625,21.144,47.80009765625C17.80799,51.76009765625,16.10399,56.48809765625,16.015990000000002,61.99209765625C16.09599,67.91209765625,18.016,72.88809765625,21.768,76.92809765625C25.52,80.96809765625,30.272,83.28009765625,36.024,83.86409765625L36,83.88009765625ZM52,92.00009765625C50.585,91.97059765625,49.2953,91.18209765625,48.624,89.93609765625C47.8776,88.74229765625,47.8287,87.23989765625,48.496,86.00009765625L64.49600000000001,58.00009765625C65.20490000000001,56.73739765625,66.5522,55.96839765625,68,56.00009765625C69.49600000000001,56.00009765625,70.64,56.67209765625,71.44,58.00009765625C72.2297,59.20999765625,72.2546,60.76569765625,71.50399999999999,62.00009765625L58.872,84.00009765625L76,84.00009765625C77.504,84.08009765625,78.624,84.77609765625,79.376,86.06419765625C80.1199,87.25939765625,80.1657,88.76179765625,79.496,90.00009765625L63.496,118.00059765625C62.9886,118.94359765625,62.1046,119.62659765625,61.064,119.88059765625C60.0239,120.12959765625,58.9278,119.97259765625,58,119.44059765625C57.0531,118.96659765625,56.3667,118.09559765625,56.128,117.06459765625C55.8767,116.03159765625,56.0074,114.94359765625,56.496,114.00059765625L69.12,92.00009765625L52,92.00009765625Z" fill="#FFFFFF" fill-opacity="1"/></g></g></svg>