<svg xmlns="http://www.w3.org/2000/svg" xmlns:xlink="http://www.w3.org/1999/xlink" fill="none" version="1.1" width="124" height="124.00001525878906" viewBox="0 0 124 124.00001525878906"><g><path d="M2.00740271,111.606C1.889144,110.441,3.2101699999999997,109.117,4.37832,109.235L9.841239999999999,109.235L9.841239999999999,4.37832C9.72298,3.21305,11.044,1.889144,12.2122,2.00740161C13.3774,1.889144,14.7013,3.2101699999999997,14.5831,4.37832L14.5831,109.235L119.622,109.235C120.787,109.117,122.111,110.438,121.993,111.606C122.111,112.771,120.79,114.095,119.622,113.977L14.5802,113.977L14.5802,119.622C14.6984,120.787,13.3774,122.111,12.2093,121.993C11.04401,122.111,9.7201,120.79,9.83836,119.622L9.83836,113.977L4.37832,113.977C3.21305,114.095,1.889144,112.774,2.00740271,111.606ZM75.653,18.9788C85.6933,14.9868,96.0971,13.2361,105.693,13.2476C106.758,13.1409,107.966,14.3494,107.857,15.4166C107.966,16.4809,106.758,17.689500000000002,105.69,17.582700000000003C96.6019,17.571199999999997,86.7519,19.2297,77.2451,23.0082C67.7384,26.7866,58.5778,32.6851,51.0468,40.2161C47.2813,43.9816,43.9239,48.1545,41.0356,52.5743C38.1473,56.9942,35.7281,61.6611,33.838899999999995,66.4144C30.0604,75.9212,28.4019,85.7712,28.4134,94.8597C28.4221,95.4135,28.1769,96.0048,27.7789,96.3913C27.3924,96.7893,26.8011,97.0345,26.2473,97.0258C25.6935,97.0345,25.1022,96.7893,24.7157,96.3913C24.3177,96.0048,24.0725,95.4135,24.0812,94.8597C24.0696,85.2635,25.8204,74.8597,29.8123,64.8194C33.8042,54.779,40.0344,45.105,47.9865,37.1529C55.9386,29.2008,65.6126,22.9707,75.653,18.9788Z" fill-rule="evenodd" fill="#FFFFFF" fill-opacity="1"/><path d="M7.84124,107.235L7.84124,4.46294Q7.71422,2.714289,9.129529999999999,1.297877Q10.51151,-0.08518999999999988,12.212,0.0021599999999999397Q13.9105,-0.08537000000000017,15.2926,1.2956910000000001Q16.71,2.711976,16.5831,4.4627300000000005L16.5831,107.235L119.537,107.235Q121.286,107.108,122.702,108.524Q124.085,109.905,123.998,111.606Q124.085,113.304,122.704,114.687Q121.288,116.104,119.537,115.977L16.580199999999998,115.977L16.580199999999998,119.537Q16.7072,121.286,15.2919,122.702Q13.9099,124.085,12.2094,123.998Q10.51096,124.085,9.12883,122.704Q7.71144,121.288,7.83836,119.537L7.83836,115.977L4.462870000000001,115.977Q2.714248,116.104,1.297876,114.689Q-0.08518999999999988,113.307,0.0021599999999999397,111.606Q-0.08537999999999979,109.908,1.2956910000000001,108.526Q2.711983,107.108,4.46274,107.235L7.84124,107.235ZM4.27757,111.235L11.84124,111.235L11.84124,4.27783Q11.87993,4.20439,11.95906,4.1251999999999995Q12.0381,4.04608,12.1114,4.00742L12.2124,4.01765L12.3128,4.00746Q12.3862,4.04616,12.4653,4.1252200000000006Q12.5444,4.2043,12.5831,4.27757L12.5831,111.235L119.722,111.235Q119.796,111.274,119.875,111.353Q119.954,111.432,119.993,111.505L119.982,111.606L119.993,111.707Q119.954,111.78,119.875,111.859Q119.796,111.938,119.722,111.977L12.5802,111.977L12.5802,119.722Q12.5415,119.796,12.4624,119.875Q12.3833,119.954,12.3101,119.993L12.209,119.982L12.1087,119.993Q12.0353,119.954,11.95615,119.875Q11.87702,119.796,11.83836,119.722L11.83836,111.977L4.27783,111.977Q4.20439,111.938,4.1251999999999995,111.859Q4.04608,111.78,4.00742,111.707L4.01765,111.606L4.00746,111.506Q4.04616,111.432,4.1252200000000006,111.353Q4.2043,111.274,4.27757,111.235ZM109.862,15.4164Q109.943,13.7936,108.631,12.4789Q107.284,11.13006,105.611,11.24753Q98.0384,11.24623,90.4759,12.6452Q82.4221,14.1352,74.9141,17.1203Q67.1066,20.2244,59.9425,24.9066Q52.6162,29.6948,46.5723,35.7387Q40.5284,41.7826,35.7402,49.1089Q31.058,56.273,27.9538,64.0805Q24.9687,71.5885,23.4788,79.6423Q22.072,87.2469,22.0812,94.8621Q22.0541,96.5799,23.3015,97.8056Q24.5166,99.0418,26.2473,99.026Q27.9781,99.0418,29.1932,97.8056Q30.4405,96.5796,30.4132,94.8284Q30.3952,80.4937,35.6974,67.1531Q38.4911,60.1243,42.7098,53.6684Q47.0228,47.0685,52.461,41.6303Q57.8992,36.192,64.4991,31.8791Q70.9549,27.6604,77.9838,24.8667Q91.2868,19.5794,105.607,19.5827Q107.281,19.7008,108.629,18.353Q109.943,17.0387,109.862,15.4164ZM105.734,15.2476L105.691,15.2476Q90.4968,15.2293,76.3919,20.8372Q68.9583,23.7928,62.1308,28.2549Q55.1515,32.8163,49.4007,38.5671Q43.6499,44.3179,39.0885,51.2972Q34.6264,58.1246,31.6708,65.5583Q26.0629,79.6632,26.0812,94.8573Q26.0803,94.9286,26.109,94.9564L26.1301,94.9769L26.1506,94.998Q26.1784,95.0266,26.216,95.0261L26.2473,95.0256L26.2786,95.0261Q26.3162,95.0266,26.344,94.998L26.3645,94.9769L26.3856,94.9564Q26.4143,94.9286,26.4137,94.8909Q26.3942,79.7303,31.9803,65.6757Q34.9225,58.2729,39.3614,51.4803Q43.9011,44.5333,49.6326,38.8019Q55.364,33.0704,62.311,28.5307Q69.1036,24.0918,76.5064,21.1496Q90.5611,15.5635,105.693,15.5827L105.733,15.5828Q105.765,15.5605,105.801,15.5246Q105.831,15.4943,105.851,15.4676L105.846,15.4169L105.851,15.3635Q105.831,15.336,105.8,15.3049Q105.764,15.2696,105.734,15.2476Z" fill-rule="evenodd" fill="#FFFFFF" fill-opacity="1"/></g></svg>