<svg xmlns="http://www.w3.org/2000/svg" xmlns:xlink="http://www.w3.org/1999/xlink" fill="none" version="1.1" width="128" height="128" viewBox="0 0 128 128"><defs><clipPath id="master_svg0_3_1295"><rect x="0" y="0" width="128" height="128" rx="0"/></clipPath></defs><g clip-path="url(#master_svg0_3_1295)"><g><path d="M23.360391625,50.23983984375C22.080390625,48.959839843750004,22.080390625,46.97583984375,23.360391625,45.69583884375C24.640390625000002,44.41583984375,26.624390625,44.41583984375,27.904390624999998,45.69583884375C29.184390625,46.97583984375,29.184390625,48.959839843750004,27.904390624999998,50.23983984375C26.624390625,51.51983984375,24.576390625000002,51.51983984375,23.360391625,50.23983984375Z" fill="#FFFFFF" fill-opacity="1"/></g><g><path d="M105.6,111.99996484375L22.4,111.99996484375C10.048,111.99996484375,0,101.95196484375,0,89.59996484375L0,51.19996484375C0,38.84796484375,10.048,28.79996484375,22.4,28.79996484375L31.296,28.79996484375C32.512,28.79996484375,33.6,28.09596484375,34.112,27.07196484375L36.992,21.37596484375C38.528,18.175964843750002,41.92,16.06396484375,45.568,16.06396484375L82.496,16.06396484375C86.08,16.06396484375,89.472,18.111964843750002,91.072,21.37596484375L94.016,27.13596484375C94.528,28.15996484375,95.616,28.79996484375,96.832,28.79996484375L105.6,28.79996484375C117.952,28.79996484375,128,38.84796484375,128,51.19996484375L128,89.59996484375C128,101.95196484375,117.952,111.99996484375,105.6,111.99996484375ZM22.4,35.199964843749996C13.568,35.199964843749996,6.4,42.36796484375,6.4,51.19996484375L6.4,89.59996484375C6.4,98.43196484375,13.568,105.59996484375,22.4,105.59996484375L105.6,105.59996484375C114.432,105.59996484375,121.6,98.43196484375,121.6,89.59996484375L121.6,51.19996484375C121.6,42.36796484375,114.432,35.199964843749996,105.6,35.199964843749996L96.768,35.199964843749996C93.12,35.199964843749996,89.728,33.08796484375,88.192,29.887964843749998L85.312,24.25596484375C84.8,23.16796484375,83.648,22.46396484375,82.496,22.46396484375L45.568,22.46396484375C44.352,22.46396484375,43.264,23.10396484375,42.752,24.12796484375L42.688,24.19196484375L39.808,29.887964843749998C38.208,33.08796484375,34.88,35.13596484375,31.232,35.13596484375L22.4,35.13596484375L22.4,35.199964843749996Z" fill="#FFFFFF" fill-opacity="1"/></g><g><path d="M64.000390625,95.99983984375001C49.856390625,95.99983984375001,38.400390625,84.54383984374999,38.400390625,70.39983984375C38.400390625,56.255839843749996,49.856390625,44.79983904375,64.000390625,44.79983904375C78.144390625,44.79983904375,89.600390625,56.255839843749996,89.600390625,70.39983984375C89.600390625,84.54383984374999,78.144390625,95.99983984375001,64.000390625,95.99983984375001ZM64.000390625,51.19983984375C53.440390625,51.19983984375,44.800390625,59.83983984375,44.800390625,70.39983984375C44.800390625,80.95983984374999,53.440390625,89.59983984375,64.000390625,89.59983984375C74.560390625,89.59983984375,83.200390625,80.95983984374999,83.200390625,70.39983984375C83.200390625,59.83983984375,74.560390625,51.19983984375,64.000390625,51.19983984375ZM23.360391625,50.23983984375C22.080390625,48.959839843750004,22.080390625,46.97583984375,23.360391625,45.69583884375C24.640390625000002,44.41583984375,26.624390625,44.41583984375,27.904390624999998,45.69583884375C29.184390625,46.97583984375,29.184390625,48.959839843750004,27.904390624999998,50.23983984375C26.624390625,51.51983984375,24.576390625000002,51.51983984375,23.360391625,50.23983984375Z" fill="#FFFFFF" fill-opacity="1"/></g></g></svg>