<svg xmlns="http://www.w3.org/2000/svg" xmlns:xlink="http://www.w3.org/1999/xlink" fill="none" version="1.1" width="110" height="79.04046630859375" viewBox="0 0 110 79.04046630859375"><g><g><path d="M41.2521,0C43.3532,0,45.2574,1.2804,46.0454,3.23385L68.7479,60.0149L77.7108,37.6078C78.4977,35.6517,80.3956,34.3712,82.5041,34.374L104.846,34.374C107.685,34.374,110,36.6886,110,39.5284C110,42.3683,107.685,44.6829,104.846,44.6829L85.9842,44.6829L73.5249,75.8066C72.738,77.7627,70.84,79.0432,68.7315,79.0404C66.6304,79.0404,64.7262,77.76,63.9382,75.8066L41.2521,19.0419L32.2892,41.449C31.5023,43.4052,29.6043,44.6856,27.4959,44.6829L5.15445,44.6829C2.31458,44.6829,0,42.3683,0,39.5284C0,36.6886,2.31458,34.374,5.15445,34.374L23.9994,34.374L36.4587,3.25026C37.2467,1.2804,39.1345,0,41.2521,0Z" fill="#FFFFFF" fill-opacity="1"/></g></g></svg>