<svg xmlns="http://www.w3.org/2000/svg" xmlns:xlink="http://www.w3.org/1999/xlink" fill="none" version="1.1" width="128" height="128" viewBox="0 0 128 128"><defs><clipPath id="master_svg0_3_0347"><rect x="0" y="0" width="128" height="128" rx="0"/></clipPath></defs><g clip-path="url(#master_svg0_3_0347)"><g><path d="M38.762430859375,107.9876953125C23.262430859375,107.9876953125,11.512400859375,107.4626953125,11.349900859375,107.4501953125C9.762400859375,107.3751953125,8.537399259375,106.0376953125,8.612399099375,104.4501953125C8.687398959375,102.8626953125,10.049900859375,101.6251953125,11.612400859375,101.7126953125C35.774930859375004,102.8126953125,100.962430859375,103.3001953125,112.312130859375,92.4501953125C113.375130859375,91.4376953125,113.500130859375,90.6876953125,113.500130859375,90.2001953125C113.500130859375,88.3251953125,111.412130859375,84.1876953125,97.412430859375,77.4751953125C87.024930859375,72.5251953125,73.262430859375,67.6251953125,59.949930859375,62.8751953125C30.199930859375,52.2501953125,13.374900859375,45.8376953125,13.374900859375,37.5501953125C13.374900859375,32.1376953125,18.824930859375,25.4876953125,61.312430859375,22.1251953125C83.812430859375,20.3376942125,106.599930859375,20.3251953125,106.824930859375,20.3251953125C108.412430859375,20.3251953125,109.687130859375,21.6126953125,109.687130859375,23.1876953125C109.687130859375,24.7626953125,108.399930859375,26.0501953125,106.824930859375,26.0501953125C106.599930859375,26.0501953125,84.012430859375,26.0751953125,61.737430859375,27.8376953125C19.599930859375,31.1876953125,19.112430859375,37.4876953125,19.112430859375,37.5501953125C19.112430859375,37.6626953125,19.249930859375,40.2251953125,31.112430859375,45.6626953125C39.274930859375004,49.4001953125,50.262430859375,53.3251953125,61.887430859375,57.4751953125C96.524930859375,69.8376953125,119.237130859375,78.8001953125,119.237130859375,90.2376953125C119.237130859375,92.6001953125,118.237130859375,94.7501953125,116.275130859375,96.6251953125C109.550130859375,103.0501953125,90.312430859375,106.6751953125,57.462430859375,107.7126953125C50.962430859375,107.9126953125,44.599930859375,107.9876953125,38.762430859375,107.9876953125Z" fill="#FFFFFF" fill-opacity="1"/></g></g></svg>