<svg xmlns="http://www.w3.org/2000/svg" xmlns:xlink="http://www.w3.org/1999/xlink" fill="none" version="1.1" width="128" height="128" viewBox="0 0 128 128"><defs><clipPath id="master_svg0_3_411"><rect x="0" y="0" width="128" height="128" rx="0"/></clipPath></defs><g clip-path="url(#master_svg0_3_411)"><g><path d="M11.370663724609376,72.69334375C10.414002724609375,66.93734375,10.414002724609375,61.06284375,11.370663724609376,55.30674375C17.247997724609377,55.44534375,22.527967724609375,52.62934375,24.581367724609375,47.67474375C26.634667724609375,42.71474375,24.890667724609376,36.98674375,20.634667724609375,32.93874375C24.028867724609377,28.18824375,28.184367724609373,24.03094375,32.933367724609376,20.63472375C36.986667724609376,24.89074375,42.71466772460938,26.63474375,47.67466772460938,24.581343750000002C52.63466772460937,22.528043750000002,55.445367724609376,17.24272375,55.30136772460938,11.37072475C61.06086772460937,10.41288375,66.93906772460937,10.41288375,72.69866772460938,11.37072475C72.55466772460937,17.24805375,75.37066772460938,22.528043750000002,80.32536772460938,24.581343750000002C85.28536772460937,26.63474375,91.01336772460938,24.89074375,95.06136772460937,20.63472375C99.81176772460938,24.02894375,103.96906772460937,28.18444375,107.36536772460937,32.93334375C103.10936772460937,36.98674375,101.36536772460937,42.71474375,103.41866772460938,47.67474375C105.47196772460937,52.63474375,110.75716772460937,55.44534375,116.62916772460937,55.30134375C117.58716772460937,61.06094375,117.58716772460937,66.93914375,116.62916772460937,72.69874375C110.75216772460938,72.55474375,105.47196772460937,75.37074375,103.41866772460938,80.32534375C101.36536772460937,85.28544375,103.10936772460937,91.01344375,107.36536772460937,95.06144375C103.97116772460937,99.81184375,99.81566772460937,103.96914375,95.06666772460937,107.36544375C91.01336772460938,103.10944375,85.28536772460937,101.36544375,80.32536772460938,103.41874375C75.36536772460937,105.47204375,72.55466772460937,110.75734375,72.69866772460938,116.62934375C66.93906772460937,117.58734375,61.06086772460937,117.58734375,55.30136772460938,116.62934375C55.445367724609376,110.75234375,52.629367724609374,105.47204375,47.67466772460938,103.41874375C42.71466772460938,101.36544375,36.986667724609376,103.10944375,32.938667724609374,107.36544375C28.188167724609375,103.97114375,24.030967724609376,99.81574375,20.634667724609375,95.06674375C24.890667724609376,91.01344375,26.634667724609375,85.28544375,24.581367724609375,80.32534375C22.527967724609375,75.36544375,17.242667724609376,72.55474375,11.370665724609374,72.69874375L11.370663724609376,72.69334375ZM63.99996772460938,80.00004375C72.83656772460938,80.00004375,79.99996772460938,72.83664375000001,79.99996772460938,64.00004375C79.99996772460938,55.16354375,72.83656772460938,48.00004375,63.99996772460938,48.00004375C55.163467724609376,48.00004375,47.99996772460938,55.16354375,47.99996772460938,64.00004375C47.99996772460938,72.83664375000001,55.163467724609376,80.00004375,63.99996772460938,80.00004375Z" fill="#FFFFFF" fill-opacity="1"/></g></g></svg>