<svg xmlns="http://www.w3.org/2000/svg" xmlns:xlink="http://www.w3.org/1999/xlink" fill="none" version="1.1" width="128" height="128" viewBox="0 0 128 128"><defs><clipPath id="master_svg0_3_385"><rect x="0" y="0" width="128" height="128" rx="0"/></clipPath></defs><g clip-path="url(#master_svg0_3_385)"><g><path d="M112.00031298828125,96L112.00031298828125,112L101.33331298828125,112L101.33331298828125,96L90.66661298828124,96L90.66661298828124,80L122.66631298828125,80L122.66631298828125,96L112.00031298828125,96ZM26.66661298828125,96L26.66661298828125,112L16.00001298828125,112L16.00001298828125,96L5.33331298828125,96L5.33331298828125,80L37.33331298828125,80L37.33331298828125,96L26.66661298828125,96ZM58.66661298828125,32L58.66661298828125,16L69.33331298828125,16L69.33331298828125,32L80.00001298828126,32L80.00001298828126,48L48.00001298828125,48L48.00001298828125,32L58.66661298828125,32ZM58.66661298828125,58.6667L69.33331298828125,58.6667L69.33331298828125,112L58.66661298828125,112L58.66661298828125,58.6667ZM16.00001298828125,69.33330000000001L16.00001298828125,16L26.66661298828125,16L26.66661298828125,69.33330000000001L16.00001298828125,69.33330000000001ZM101.33331298828125,69.33330000000001L101.33331298828125,16L112.00031298828125,16L112.00031298828125,69.33330000000001L101.33331298828125,69.33330000000001Z" fill="#FFFFFF" fill-opacity="1"/></g></g></svg>