<svg xmlns="http://www.w3.org/2000/svg" xmlns:xlink="http://www.w3.org/1999/xlink" fill="none" version="1.1" width="128" height="128" viewBox="0 0 128 128"><defs><clipPath id="master_svg0_3_381"><rect x="0" y="0" width="128" height="128" rx="0"/></clipPath></defs><g clip-path="url(#master_svg0_3_381)"><g><path d="M26.66668701171875,79.99998701171874L26.66668701171875,90.66668701171875C26.66488701171875,96.24868701171874,30.96708701171875,100.88808701171875,36.53338701171875,101.30668701171875L37.33338701171875,101.33338701171876L53.33338701171875,101.33338701171876L53.33338701171875,111.99968701171875L37.33338701171875,111.99968701171875C25.55128701171875,111.99968701171875,16.00001701171875,102.44878701171875,16.00001701171875,90.66668701171875L16.00001701171875,79.99998701171874L26.66668701171875,79.99998701171874ZM95.99998701171874,53.33338701171875L119.46668701171875,111.99968701171875L107.97338701171876,111.99968701171875L101.56798701171876,95.99998701171874L79.75468701171874,95.99998701171874L73.35998701171874,111.99968701171875L61.87198701171875,111.99968701171875L85.33338701171876,53.33338701171875L95.99998701171874,53.33338701171875ZM90.66668701171875,68.71998701171876L84.01598701171875,85.33338701171876L97.30668701171875,85.33338701171876L90.66668701171875,68.71998701171876ZM42.66668701171875,10.66668701171875L42.66668701171875,21.33338701171875L63.99998701171875,21.33338701171875L63.99998701171875,58.66668701171875L42.66668701171875,58.66668701171875L42.66668701171875,74.66668701171875L31.99998701171875,74.66668701171875L31.99998701171875,58.66668701171875L10.66668701171875,58.66668701171875L10.66668701171875,21.33338701171875L31.99998701171875,21.33338701171875L31.99998701171875,10.66668701171875L42.66668701171875,10.66668701171875ZM90.66668701171875,16.00001701171875C102.44878701171875,16.00001701171875,111.99968701171875,25.55128701171875,111.99968701171875,37.33338701171875L111.99968701171875,47.99998701171875L101.33338701171876,47.99998701171875L101.33338701171876,37.33338701171875C101.33338701171876,31.44228701171875,96.55768701171876,26.66668701171875,90.66668701171875,26.66668701171875L74.66668701171875,26.66668701171875L74.66668701171875,16.00001701171875L90.66668701171875,16.00001701171875ZM31.99998701171875,31.99998701171875L21.33338701171875,31.99998701171875L21.33338701171875,47.99998701171875L31.99998701171875,47.99998701171875L31.99998701171875,31.99998701171875ZM53.33338701171875,31.99998701171875L42.66668701171875,31.99998701171875L42.66668701171875,47.99998701171875L53.33338701171875,47.99998701171875L53.33338701171875,31.99998701171875Z" fill="#FFFFFF" fill-opacity="1"/></g></g></svg>