<svg xmlns="http://www.w3.org/2000/svg" xmlns:xlink="http://www.w3.org/1999/xlink" fill="none" version="1.1" width="128" height="128" viewBox="0 0 128 128"><defs><clipPath id="master_svg0_3_419"><rect x="0" y="0" width="128" height="128" rx="0"/></clipPath></defs><g clip-path="url(#master_svg0_3_419)"><g><path d="M55.9999259765625,90.66662211914063L21.3333259765625,90.66662211914063L21.3333259765625,79.99992211914062L55.9999259765625,79.99992211914062C65.44632597656249,80.00332211914062,73.4011259765625,87.06292211914062,74.5269259765625,96.44192211914063C75.6527259765625,105.82092211914062,69.5945259765625,114.56242211914062,60.4173259765625,116.80142211914062C51.2401259765625,119.04042211914063,41.8370259765625,114.07042211914063,38.5173259765625,105.22662211914063L48.5066259765625,101.47722211914062C49.9290259765625,105.26762211914063,53.9587259765625,107.39802211914062,57.8919259765625,106.43882211914062C61.8252259765625,105.47972211914062,64.4218259765625,101.73342211914063,63.9397259765625,97.71372211914063C63.4575259765625,93.69412211914063,60.0484259765625,90.66832211914063,55.9999259765625,90.66662211914063ZM26.6666259765625,58.66662211914063L98.6666259765625,58.66662211914063C108.1129259765625,58.670022119140626,116.0676259765625,65.72962211914063,117.1936259765625,75.10862211914062C118.3196259765625,84.48762211914062,112.2616259765625,93.22932211914062,103.0840259765625,95.46812211914063C93.9068259765625,97.70692211914063,84.5036259765625,92.73702211914062,81.1839259765625,83.89322211914063L91.1733259765625,80.14392211914063C92.5956259765625,83.93432211914063,96.6254259765625,86.06462211914062,100.5586259765625,85.10552211914063C104.4918259765625,84.14632211914062,107.0885259765625,80.40012211914062,106.6063259765625,76.38042211914062C106.1241259765625,72.36082211914062,102.7151259765625,69.33492211914063,98.6666259765625,69.33322211914063L26.6666259765625,69.33322211914063C17.8300659765625,69.33322211914063,10.6666259765625,62.169822119140626,10.6666259765625,53.33322211914062C10.6666259765625,44.49672211914063,17.8300659765625,37.33322211914063,26.6666259765625,37.33322211914063L71.99992597656251,37.33322211914063C76.0484259765625,37.331622119140626,79.4575259765625,34.305722119140626,79.9397259765625,30.286122119140625C80.4219259765625,26.266422119140625,77.8252259765625,22.520222119140627,73.8919259765625,21.561022119140624C69.9587259765625,20.601872119140623,65.9290259765625,22.732222119140623,64.5066259765625,26.522622119140625L54.5173259765625,22.778622119140625C57.6922259765625,14.334852119140624,66.4498259765625,9.368342119140625,75.3259259765625,10.977791119140624C84.2021259765625,12.587232119140625,90.6584259765625,20.312352119140627,90.6666259765625,29.333222119140625C90.6666259765625,39.642622119140626,82.3093259765625,47.99992211914063,71.99992597656251,47.99992211914063L26.6666259765625,47.99992211914063C23.7211259765625,47.99992211914063,21.3333259765625,50.387722119140626,21.3333259765625,53.33322211914062C21.3333259765625,56.27882211914063,23.7211259765625,58.66662211914063,26.6666259765625,58.66662211914063Z" fill="#FFFFFF" fill-opacity="1"/></g></g></svg>