<svg xmlns="http://www.w3.org/2000/svg" xmlns:xlink="http://www.w3.org/1999/xlink" fill="none" version="1.1" width="108.86615753173828" height="108.86615753173828" viewBox="0 0 108.86615753173828 108.86615753173828"><defs><clipPath id="master_svg0_3_0344"><rect x="0" y="0" width="108.86615753173828" height="108.86615753173828" rx="0"/></clipPath></defs><g clip-path="url(#master_svg0_3_0344)"><g><path d="M16.2504376953125,25.0467216796875L3.1322086953125,3.5897216796875L15.7928376953125,3.5897216796875L20.2672376953125,11.5725316796875C21.5384376953125,14.0640216796875,22.9112376953125,16.6063216796875,24.2841376953125,19.0977216796875L24.5891376953125,19.0977216796875C25.6061376953125,16.6063216796875,26.8264376953125,14.0640216796875,27.8433376953125,11.5725316796875L31.6059376953125,3.5897216796875L43.7580376953125,3.5897216796875L30.6398376953125,26.3687216796875L44.6224376953125,48.3849216796875L31.9618376953125,48.3849216796875L26.9789376953125,40.2496216796875C25.5552376953125,37.6056216796875,24.0807376953125,34.9108216796875,22.6570376953125,32.317621679687505L22.2502376953125,32.317621679687505C20.9791376953125,34.8599216796875,19.7588376953125,37.5039216796875,18.4876376953125,40.2496216796875L14.3183376953125,48.3849216796875L2.1661376953125,48.3849216796875L16.2504376953125,25.0467216796875ZM80.4179376953125,87.7905216796875L66.8929376953125,59.1643216796875L76.4520376953125,59.1643216796875L80.9772376953125,70.1470216796875C82.2484376953125,73.5028216796875,83.4687376953125,76.6553216796875,84.8924376953125,80.1636216796875L85.1466376953125,80.1636216796875C86.5703376953125,76.7061216796875,87.8923376953125,73.5028216796875,89.1634376953125,70.1470216796875L93.6887376953125,59.1643216796875L103.0951376953125,59.1643216796875L89.5193376953125,87.7905216796875L89.5193376953125,104.3157216796875L80.4688376953125,104.3157216796875L80.4179376953125,87.7905216796875Z" fill="#FFFFFF" fill-opacity="1"/></g><g><path d="M0,101.677L101.677,0L108.866,7.19469L7.18961,108.866L0,101.677Z" fill="#FFFFFF" fill-opacity="1"/></g></g></svg>