<svg xmlns="http://www.w3.org/2000/svg" xmlns:xlink="http://www.w3.org/1999/xlink" fill="none" version="1.1" width="128" height="128" viewBox="0 0 128 128"><defs><clipPath id="master_svg0_3_1262"><rect x="0" y="0" width="128" height="128" rx="0"/></clipPath></defs><g clip-path="url(#master_svg0_3_1262)"><g><path d="M66.666015625,90.6667L66.666015625,106.6667L86.284715625,106.6667C87.231315625,106.6667,87.999315625,107.8613,87.999315625,109.3333C87.999315625,110.8053,87.231315625,112,86.284715625,112L41.714015625,112C40.767315624999995,112,39.999315625,110.8053,39.999315625,109.3333C39.999315625,107.8613,40.767315624999995,106.6667,41.714015625,106.6667L61.332715625,106.6667L61.332715625,90.6667L21.332715625,90.6667C15.441645625,90.6667,10.666015625,85.891,10.666015625,80L10.666015625,26.6667C10.666014671326,20.77563,15.441645625,16.000000953674,21.332715625,16L106.666015625,16C112.557015625,16.000000953674,117.333015625,20.77563,117.333015625,26.6667L117.333015625,80C117.333015625,85.891,112.557015625,90.6667,106.666015625,90.6667L66.666015625,90.6667ZM21.332715625,21.33333C18.387165625,21.33333,15.999345625,23.72115,15.999345625,26.6667L15.999345625,80C15.999345625,82.9455,18.387165625,85.3333,21.332715625,85.3333L106.666015625,85.3333C109.611515625,85.3333,111.999015625,82.9455,111.999015625,80L111.999015625,26.6667C111.999015625,23.72115,109.611515625,21.33333,106.666015625,21.33333L21.332715625,21.33333ZM85.332715625,72C85.332715625,70.5173,86.516715625,69.33330000000001,87.972715625,69.33330000000001L98.692715625,69.33330000000001C100.154915625,69.34790000000001,101.332715625,70.5375,101.332715625,72C101.332715625,73.4827,100.148715625,74.66669999999999,98.692715625,74.66669999999999L87.972715625,74.66669999999999C86.510415625,74.65209999999999,85.332715625,73.4625,85.332715625,72Z" fill="#FFFFFF" fill-opacity="1"/></g></g></svg>